<?xml version="1.0" encoding="iso-8859-1"?>
<!-- Generator: Adobe Illustrator 19.0.0, SVG Export Plug-In . SVG Version: 6.00 Build 0)  -->
<svg version="1.1" id="Layer_1" xmlns="http://www.w3.org/2000/svg" xmlns:xlink="http://www.w3.org/1999/xlink" x="0px" y="0px"
	 viewBox="0 0 496.158 496.158" style="enable-background:new 0 0 496.158 496.158;" xml:space="preserve">
<path style="fill:#334D5C;" d="M248.082,0.003C111.07,0.003,0,111.063,0,248.085c0,137.001,111.07,248.07,248.082,248.07
	c137.006,0,248.076-111.069,248.076-248.07C496.158,111.062,385.088,0.003,248.082,0.003z"/>
<path style="fill:#D3D3D1;" d="M182.391,258.989l-31.439-16.404c-1.18-0.617-2.632-0.292-3.438,0.766l-39.642,51.945
	c-0.547,0.716-0.706,1.656-0.424,2.512l32.807,99.789c0.377,1.146,1.443,1.881,2.596,1.881c0.242,0,0.488-0.032,0.732-0.1
	c1.406-0.39,2.259-1.817,1.936-3.241l-20.117-88.512l57.391-44.043c0.741-0.569,1.14-1.476,1.059-2.406
	C183.768,260.246,183.219,259.421,182.391,258.989z"/>
<path style="fill:#F2F2F2;" d="M120.097,305.039l50.81-52.042l-19.955-10.412c-1.18-0.617-2.632-0.292-3.438,0.766l-39.642,51.945
	c-0.547,0.716-0.706,1.656-0.424,2.512l32.807,99.789c0.377,1.146,1.443,1.881,2.596,1.881c0.242,0,0.488-0.032,0.732-0.1
	c1.406-0.39,2.259-1.817,1.936-3.241L120.097,305.039z"/>
<g>
	<path style="fill:#D3D3D1;" d="M388.053,295.296l-39.643-51.945c-0.807-1.057-2.258-1.382-3.438-0.766l-31.44,16.404
		c-0.827,0.432-1.378,1.256-1.459,2.187c-0.081,0.931,0.317,1.837,1.06,2.406l57.39,44.043l-20.116,88.512
		c-0.324,1.424,0.527,2.851,1.936,3.241c0.244,0.068,0.489,0.1,0.73,0.1c1.154,0,2.221-0.734,2.597-1.881l32.808-99.789
		C388.758,296.952,388.6,296.012,388.053,295.296z"/>
	<path style="fill:#D3D3D1;" d="M275.057,263.084c-0.346-0.413-0.857-0.651-1.396-0.651h-51.644c-0.54,0-1.054,0.24-1.399,0.654
		c-0.346,0.415-0.491,0.962-0.395,1.494l24.455,134.653c0.158,0.867,0.913,1.497,1.794,1.497h3.417c0.885,0,1.642-0.635,1.796-1.506
		l23.771-134.653C275.549,264.042,275.402,263.497,275.057,263.084z"/>
</g>
<g>
	<path style="fill:#F2F2F2;" d="M254.971,264.11c-0.075-0.947-0.865-1.677-1.816-1.677h-10.328c-0.957,0-1.752,0.741-1.818,1.696
		l-3.342,48.074c-0.006,0.091-0.006,0.182,0.002,0.273l6.987,86.579c0.075,0.947,0.866,1.676,1.816,1.676h3.417
		c0.95,0,1.74-0.729,1.816-1.675l7.064-87.187c0.008-0.098,0.008-0.195,0-0.293L254.971,264.11z"/>
	<path style="fill:#F2F2F2;" d="M388.053,295.296l-39.643-51.945c-0.807-1.057-2.258-1.382-3.438-0.766l-19.956,10.412l50.81,52.042
		l-25.42,91.098c-0.324,1.424,0.527,2.851,1.936,3.241c0.244,0.068,0.489,0.1,0.73,0.1c1.154,0,2.221-0.734,2.597-1.881
		l32.808-99.789C388.758,296.952,388.6,296.012,388.053,295.296z"/>
</g>
<path style="fill:#C4A405;" d="M248.079,178.36c-78.272,0-160.462,0.066-160.462,28.252s82.189,73.82,160.462,73.82
	c78.271,0,160.462-45.634,160.462-73.82S326.35,178.36,248.079,178.36z"/>
<ellipse style="fill:#DBBB00;" cx="248.079" cy="199.319" rx="164.5" ry="59.24"/>
<path style="fill:#CECECE;" d="M248.079,95.427c-54.611,0-98.882,56.504-98.882,102.983c0,23.695,44.271,36.454,98.882,36.454
	s98.882-12.759,98.882-36.454C346.961,151.019,302.69,95.427,248.079,95.427z"/>
<path style="fill:#E2E2E2;" d="M248.079,110.206c-43.034,0-77.921,44.526-77.921,81.152
	C170.158,210.031,291.113,110.206,248.079,110.206z"/>
<g>
</g>
<g>
</g>
<g>
</g>
<g>
</g>
<g>
</g>
<g>
</g>
<g>
</g>
<g>
</g>
<g>
</g>
<g>
</g>
<g>
</g>
<g>
</g>
<g>
</g>
<g>
</g>
<g>
</g>
</svg>
