<?xml version="1.0" encoding="iso-8859-1"?>
<!-- Generator: Adobe Illustrator 19.0.0, SVG Export Plug-In . SVG Version: 6.00 Build 0)  -->
<svg version="1.1" id="Layer_1" xmlns="http://www.w3.org/2000/svg" xmlns:xlink="http://www.w3.org/1999/xlink" x="0px" y="0px"
	 viewBox="0 0 512 512" style="enable-background:new 0 0 512 512;" xml:space="preserve">
<g>
	<g>
		<circle style="fill:#366796;" cx="256" cy="256" r="256"/>
	</g>
	<path style="fill:#273B7A;" d="M444.878,273.382l-378.735,9.185L292.916,509.34c99.249-14.336,180.065-85.599,208.293-179.626
		L444.878,273.382z"/>
	<g>
		<path style="fill:#4275A0;" d="M256,380.983c-6.189,0-11.205-5.017-11.205-11.205v-56.889c0-6.189,5.017-11.205,11.205-11.205
			c6.189,0,11.205,5.017,11.205,11.205v56.889C267.205,375.967,262.189,380.983,256,380.983z"/>
	</g>
	<g>
		<path style="fill:#4275A0;" d="M369.778,352.539c-6.189,0-11.205-5.017-11.205-11.205v-56.889c0-6.189,5.017-11.205,11.205-11.205
			s11.205,5.017,11.205,11.205v56.889C380.983,347.522,375.967,352.539,369.778,352.539z"/>
	</g>
	<g>
		<path style="fill:#4275A0;" d="M142.222,352.539c-6.189,0-11.205-5.017-11.205-11.205v-56.889c0-6.189,5.017-11.205,11.205-11.205
			c6.189,0,11.205,5.017,11.205,11.205v56.889C153.428,347.522,148.411,352.539,142.222,352.539z"/>
	</g>
	<g>
		<path style="fill:#85E3E8;" d="M170.667,227.556c0-47.128,38.205-85.333,85.333-85.333s85.333,38.205,85.333,85.333H170.667z"/>
	</g>
	<g>
		<path style="fill:#38C6D9;" d="M256,142.222c-0.193,0-0.381,0.014-0.574,0.014v85.32h85.907
			C341.333,180.427,303.128,142.222,256,142.222z"/>
	</g>
	<g>
		<path style="fill:#38C6D9;" d="M68.782,272.56l101.885-50.941h170.667l102.674,51.338c4.886,2.443,5.065,9.364,0.298,12.029
			c-40.722,22.775-191.988,92.894-375.52-0.234C63.778,282.209,63.759,275.072,68.782,272.56z"/>
	</g>
	<g>
		<path style="fill:#22AFBA;" d="M444.007,272.955l-102.674-51.336h-85.907v110.114c93.758,0.693,163.238-32.408,188.881-46.747
			C449.074,282.319,448.893,275.397,444.007,272.955z"/>
	</g>
	<g>
		<path style="fill:#FFEDB5;" d="M74.892,269.505c67.924,34.363,131.11,45.251,183.889,45.251c29.401,0,55.58-3.377,77.534-7.947
			c48.93-10.187,84.435-27.334,101.614-36.893l-15.191-7.596c-18.382,9.354-49.278,22.669-89.233,30.987
			c-57.384,11.945-144.674,15.396-243.114-31.551L74.892,269.505z"/>
	</g>
	<g>
		<path style="fill:#FDE085;" d="M422.738,262.32c-18.382,9.354-49.278,22.669-89.233,30.987
			c-21.983,4.577-48.371,7.892-78.079,7.618v13.808c1.121,0.01,2.245,0.022,3.355,0.022c29.401,0,55.58-3.377,77.534-7.947
			c48.93-10.187,84.435-27.334,101.614-36.893L422.738,262.32z"/>
	</g>
	<g>
		<circle style="fill:#85E3E8;" cx="256" cy="269.791" r="14.653"/>
	</g>
	<g>
		<path style="fill:#38C6D9;" d="M256,255.138c-0.193,0-0.383,0.022-0.574,0.029v29.248c0.191,0.007,0.381,0.029,0.574,0.029
			c8.092,0,14.653-6.561,14.653-14.653S264.092,255.138,256,255.138z"/>
	</g>
	<g>
		<circle style="fill:#386895;" cx="256" cy="184.458" r="25.859"/>
	</g>
	<g>
		<path style="fill:#273B7A;" d="M256,158.599c-0.193,0-0.381,0.024-0.574,0.029v51.659c0.193,0.003,0.381,0.029,0.574,0.029
			c14.281,0,25.859-11.578,25.859-25.859C281.859,170.177,270.281,158.599,256,158.599z"/>
	</g>
	<g>
		<circle style="fill:#85E3E8;" cx="184.458" cy="256" r="14.653"/>
	</g>
	<g>
		<circle style="fill:#38C6D9;" cx="326.68" cy="256" r="14.653"/>
	</g>
</g>
<g>
</g>
<g>
</g>
<g>
</g>
<g>
</g>
<g>
</g>
<g>
</g>
<g>
</g>
<g>
</g>
<g>
</g>
<g>
</g>
<g>
</g>
<g>
</g>
<g>
</g>
<g>
</g>
<g>
</g>
</svg>
